<?xml version="1.0" encoding="UTF-8" standalone="no"?><!-- Generator: Gravit.io --><svg xmlns="http://www.w3.org/2000/svg" xmlns:xlink="http://www.w3.org/1999/xlink" style="isolation:isolate" viewBox="0 0 840.5 735.953" width="840.5pt" height="735.953pt"><defs><clipPath id="_clipPath_3MncfEvfXDwMfA7MChmbFsI7Bd3FydPm"><rect width="840.5" height="735.953"/></clipPath></defs><g clip-path="url(#_clipPath_3MncfEvfXDwMfA7MChmbFsI7Bd3FydPm)"><g opacity="0"><rect x="0" y="0" width="840.5" height="735.953" transform="matrix(1,0,0,1,0,0)" fill="rgb(235,235,235)"/></g><path d=" M 600.783 0 L 598.946 0 C 525.847 0 461.199 38.681 424.012 95.759 C 386.826 38.681 322.178 0 249.078 0 L 247.241 0 C 133.065 1.088 41.062 93.921 41 208.103 C 41 276.229 70.837 372.895 129.018 452.437 C 239.867 604.001 424.012 736.603 424.012 736.603 C 424.012 736.603 608.157 604.025 718.982 452.437 C 777.187 372.895 807 276.229 807 208.103 C 806.938 93.931 714.95 1.101 600.783 0 L 600.783 0 Z  M 574.498 464.098 C 557.458 464.033 542.209 453.504 536.111 437.592 L 492.408 437.592 C 486.508 437.555 481.283 433.776 479.4 428.185 L 465.976 387.74 L 423.498 536.168 C 421.799 542.037 416.428 546.08 410.318 546.089 L 409.461 546.089 C 403.065 545.78 397.755 541.042 396.722 534.723 L 352.946 271.428 L 320.953 427.23 C 319.443 433.32 313.975 437.596 307.7 437.592 L 246.139 437.592 C 241.113 437.805 236.375 435.244 233.798 430.924 C 231.222 426.603 231.222 421.217 233.798 416.897 C 236.375 412.576 241.113 410.016 246.139 410.229 L 296.921 410.229 L 342.241 200.754 C 343.775 194.367 349.615 189.958 356.178 190.233 C 362.741 190.507 368.192 195.388 369.188 201.881 L 413.895 470.467 L 451.963 337.668 C 453.591 331.924 458.805 327.936 464.775 327.869 L 465.045 327.869 C 470.95 327.871 476.187 331.665 478.028 337.276 L 502.305 410.302 L 535.572 410.302 C 542.136 390.361 562.685 378.583 583.209 383 C 603.733 387.417 617.619 406.606 615.398 427.482 C 613.177 448.358 595.565 464.195 574.571 464.196 L 574.498 464.098 Z " fill="rgb(242,242,242)"/></g></svg>