<?xml version="1.0" encoding="utf-8"?>
<!-- Generator: Adobe Illustrator 23.0.4, SVG Export Plug-In . SVG Version: 6.00 Build 0)  -->
<svg version="1.1" id="Layer_1" xmlns="http://www.w3.org/2000/svg" xmlns:xlink="http://www.w3.org/1999/xlink" x="0px" y="0px"
	 viewBox="0 0 160 46" style="enable-background:new 0 0 160 46;" xml:space="preserve">
<style type="text/css">
	.st0{display:none;fill:#FFFFFF;}
	.st1{opacity:0.97;fill:#304894;}
	.st2{fill:#304894;}
</style>
<rect x="-0.13" y="-2" class="st0" width="160" height="50"/>
<path class="st1" d="M28.33,28.12h5.14c0.28-0.38,0.55-0.76,0.81-1.15H20.66V19.3H36v4.73c3-5.77,4.23-12.49,3.12-19.33
	c-1.16-0.55-2.47-0.79-3.81-0.65L14.19,8.54c-3.47,1.14-5.6,4.73-4.83,8.39l4.16,19.59c0.29,1.38,0.97,2.59,1.89,3.54
	c4.91-1.15,9.28-3.41,12.91-6.45V28.12z M32.17,10.61c2.12,0,3.84,1.72,3.84,3.84c0,2.12-1.72,3.84-3.84,3.84s-3.84-1.72-3.84-3.84
	S30.05,10.61,32.17,10.61z"/>
<path class="st2" d="M28.33,28.12h5.14c0.28-0.38,0.55-0.76,0.81-1.15H20.66V19.3H36v4.73c3-5.77,4.23-12.49,3.12-19.33
	c-1.16-0.55-2.47-0.79-3.81-0.65L14.19,8.54c-3.47,1.14-5.6,4.73-4.83,8.39l4.16,19.59c0.29,1.38,0.97,2.59,1.89,3.54
	c4.91-1.15,9.28-3.41,12.91-6.45V28.12z M32.17,10.61c2.12,0,3.84,1.72,3.84,3.84c0,2.12-1.72,3.84-3.84,3.84s-3.84-1.72-3.84-3.84
	S30.05,10.61,32.17,10.61z"/>
<path class="st2" d="M47.29,29.34L43.13,9.75c-0.49-2.3-2.03-4.12-4.01-5.05C40.23,11.54,39,18.27,36,24.03v2.94h-1.73
	c-0.26,0.39-0.53,0.77-0.81,1.15H36v7.67h-7.67V33.6c-3.63,3.04-8,5.3-12.91,6.45c1.68,1.73,4.18,2.58,6.71,2.04l19.59-4.16
	C45.63,37.1,48.12,33.25,47.29,29.34z"/>
<path class="st2" d="M143.85,31.26"/>
<path class="st2" d="M61.21,19.09"/>
<g>
	<path class="st2" d="M54.55,13.96h6.28c1.31,2.51,2.57,4.83,3.78,6.97c1.21,2.14,2.45,4.79,3.72,7.95v-6.75
		c0-2.86-0.03-4.92-0.09-6.17h-1.66c-0.17-0.43-0.25-0.84-0.25-1.23c0-0.27,0.07-0.47,0.22-0.59c0.15-0.12,0.36-0.18,0.64-0.18h6.59
		c0.17,0.36,0.25,0.72,0.25,1.08c0,0.35-0.06,0.59-0.19,0.73c-0.13,0.13-0.33,0.2-0.62,0.2h-1.27c-0.04,1.25-0.06,3.31-0.06,6.18
		v9.83c0,0.93-0.11,1.51-0.32,1.76s-0.78,0.37-1.7,0.37c-1.83,0-2.86-0.07-3.11-0.21s-1.22-1.62-2.93-4.44
		c-1.71-2.82-3.29-5.98-4.73-9.46c0,6.72,0.02,10.7,0.07,11.95h1.52c0.17,0.35,0.25,0.71,0.25,1.08c0,0.34-0.06,0.58-0.19,0.72
		s-0.33,0.21-0.6,0.21h-6.52c-0.18-0.43-0.26-0.84-0.26-1.25c0-0.26,0.07-0.46,0.22-0.58c0.15-0.12,0.36-0.18,0.64-0.18h1.22
		c0.06-1.25,0.09-4.52,0.09-9.81c-0.01-2.86-0.04-4.92-0.1-6.17h-1.51c-0.18-0.43-0.26-0.84-0.26-1.23c0-0.27,0.07-0.47,0.22-0.59
		C54.05,14.02,54.27,13.96,54.55,13.96z"/>
	<path class="st2" d="M82.45,31.94h1.73c0.17,0.32,0.25,0.68,0.25,1.08c0,0.34-0.07,0.58-0.21,0.72s-0.42,0.21-0.83,0.21h-7.03
		c-0.17-0.41-0.25-0.8-0.25-1.16c0-0.3,0.07-0.52,0.21-0.65c0.14-0.13,0.36-0.2,0.66-0.2h1.2c0.05-1.25,0.07-2.58,0.07-4
		c0-2.16-0.02-3.59-0.05-4.3s-0.11-1.23-0.23-1.55s-0.3-0.53-0.54-0.62s-0.6-0.12-1.07-0.12c-0.17-0.27-0.25-0.59-0.25-0.95
		c0-0.55,0.22-0.88,0.67-1.01s1.36-0.19,2.74-0.19c1.04,0,1.74,0.04,2.12,0.12s0.59,0.23,0.64,0.46s0.08,0.55,0.08,0.96v7.21
		C82.38,29.36,82.41,30.69,82.45,31.94z M79.77,17.3c-0.88,0-1.51-0.17-1.9-0.5c-0.39-0.34-0.59-0.81-0.59-1.43
		c0-0.64,0.25-1.17,0.75-1.59s1.21-0.62,2.12-0.62c0.94,0,1.6,0.18,1.99,0.54s0.59,0.82,0.59,1.4c0,0.63-0.23,1.16-0.7,1.58
		S80.81,17.3,79.77,17.3z"/>
	<path class="st2" d="M96.75,21.63h-0.79c-0.17-0.34-0.25-0.7-0.25-1.08s0.07-0.66,0.22-0.83s0.39-0.26,0.73-0.26h4.44
		c0.18,0.33,0.26,0.68,0.26,1.05c0,0.43-0.08,0.72-0.25,0.88s-0.46,0.23-0.88,0.23h-0.09c-0.33,0.73-1.08,2.78-2.24,6.13
		c-1.16,3.36-1.95,5.27-2.35,5.76c-0.41,0.48-1.11,0.72-2.12,0.72c-1.58,0-2.43-0.08-2.55-0.23s-0.64-1.75-1.57-4.8
		s-1.51-4.91-1.75-5.6c-0.24-0.69-0.43-1.2-0.57-1.52s-0.31-0.53-0.51-0.62s-0.53-0.12-1-0.12c-0.18-0.45-0.26-0.86-0.26-1.23
		c0-0.36,0.18-0.61,0.53-0.73s1.48-0.19,3.36-0.19c0.72,0,1.23,0.06,1.53,0.18s0.51,0.33,0.64,0.64c0.13,0.31,0.29,1.03,0.48,2.16
		s0.59,2.88,1.22,5.24s1.01,3.54,1.14,3.54s0.57-1.34,1.31-4.01S96.63,22.5,96.75,21.63z"/>
	<path class="st2" d="M110.39,19.04c2.03,0,3.51,0.46,4.42,1.38c0.92,0.92,1.38,2.38,1.38,4.37c0,0.99-0.2,1.69-0.59,2.11
		s-1.25,0.63-2.56,0.63h-5.45c0.03,1.28,0.32,2.28,0.86,3.01c0.55,0.73,1.51,1.09,2.89,1.09c1.35,0,2.73-0.39,4.16-1.17
		c0.51,0.5,0.76,1.04,0.76,1.61c0,0.78-0.57,1.33-1.72,1.63c-1.15,0.31-2.49,0.46-4.04,0.46c-2.66,0-4.58-0.54-5.79-1.61
		s-1.8-2.85-1.8-5.32c0-2.57,0.68-4.58,2.03-6.03C106.3,19.76,108.11,19.04,110.39,19.04z M109.8,21.57c-0.72,0-1.27,0.29-1.66,0.88
		s-0.58,1.61-0.59,3.06h0.78c1.08,0,1.91-0.03,2.48-0.1c0.57-0.06,0.91-0.17,1-0.32c0.1-0.15,0.15-0.4,0.15-0.75
		c0-0.88-0.19-1.56-0.57-2.04C111.02,21.81,110.49,21.57,109.8,21.57z"/>
	<path class="st2" d="M120.22,26.89c0-4.43-0.02-7.22-0.06-8.35s-0.11-1.91-0.22-2.32c-0.11-0.41-0.3-0.68-0.56-0.8
		s-0.62-0.18-1.05-0.18c-0.18-0.4-0.26-0.8-0.26-1.2c0-0.41,0.15-0.67,0.46-0.78s1.29-0.17,2.95-0.17c1.04,0,1.74,0.04,2.12,0.12
		c0.38,0.08,0.6,0.24,0.65,0.46s0.08,0.54,0.08,0.95v11.26c0,2.79,0.02,4.81,0.07,6.06h1.88c0.17,0.32,0.25,0.68,0.25,1.08
		c0,0.34-0.07,0.58-0.21,0.72s-0.42,0.21-0.83,0.21h-7.16c-0.18-0.41-0.26-0.8-0.26-1.16c0-0.3,0.07-0.52,0.21-0.65
		c0.14-0.13,0.36-0.2,0.66-0.2h1.2C120.19,30.69,120.22,29.01,120.22,26.89z"/>
	<path class="st2" d="M134.6,34.24c-2.19,0-3.84-0.57-4.94-1.71s-1.66-2.8-1.66-4.97c0-2.71,0.67-4.8,2.01-6.29s3.23-2.23,5.66-2.23
		c2.19,0,3.83,0.57,4.94,1.71s1.66,2.8,1.66,4.97c0,2.71-0.67,4.8-2.01,6.29C138.92,33.5,137.03,34.24,134.6,34.24z M135.29,31.71
		c0.79,0,1.38-0.32,1.77-0.94c0.39-0.63,0.58-1.85,0.58-3.67c0-1.98-0.21-3.4-0.64-4.25s-1.1-1.27-2.01-1.27
		c-0.79,0-1.38,0.32-1.77,0.94c-0.39,0.63-0.58,1.85-0.58,3.67c0,1.98,0.21,3.4,0.64,4.25S134.37,31.71,135.29,31.71z"/>
</g>
</svg>
