<?xml version="1.0" encoding="UTF-8" standalone="no"?><!-- Generator: Gravit.io --><svg xmlns="http://www.w3.org/2000/svg" xmlns:xlink="http://www.w3.org/1999/xlink" style="isolation:isolate" viewBox="0 0 840.5 735.953" width="840.5pt" height="735.953pt"><defs><clipPath id="_clipPath_yqcjzvmlMye7LS3pTGOOzbvG0BuCr5vB"><rect width="840.5" height="735.953"/></clipPath></defs><g clip-path="url(#_clipPath_yqcjzvmlMye7LS3pTGOOzbvG0BuCr5vB)"><path d=" M 840.499 420.255 L 840.499 743.451 L 0.001 743.451 L 0.001 420.255 C -0.151 329.3 29.352 240.775 84.037 168.095 C 158.292 69.073 272.426 7.825 395.991 0.691 Q 408.012 -0.012 420.25 0.005 C 424.884 0.005 429.519 0.072 434.103 0.239 C 540.734 3.617 642.058 47.556 717.398 123.09 C 719.673 125.366 721.898 127.658 724.14 129.967 C 735.656 142.028 746.449 154.76 756.463 168.095 C 811.141 240.778 840.643 329.301 840.499 420.255 L 840.499 420.255 Z " fill="rgb(230,230,230)"/><path d=" M 434.109 0.243 L 434.109 743.448 L 395.983 743.448 L 395.983 0.693 Q 408.019 -0.009 420.245 0 C 424.889 0 429.516 0.069 434.109 0.243 Z " fill="rgb(255,255,255)"/><path d=" M 756.46 168.099 L 84.03 168.099 C 94.039 154.762 104.832 142.031 116.35 129.973 L 724.14 129.973 C 735.658 142.031 746.451 154.762 756.46 168.099 L 756.46 168.099 Z " fill="rgb(255,255,255)"/><rect x="478.639" y="277.277" width="297.884" height="466.174" transform="matrix(1,0,0,1,0,0)" fill="rgb(255,255,255)"/><rect x="530.58" y="362.473" width="45.058" height="45.058" transform="matrix(1,0,0,1,0,0)" fill="rgb(230,230,230)"/><rect x="603.174" y="362.473" width="45.058" height="45.058" transform="matrix(1,0,0,1,0,0)" fill="rgb(230,230,230)"/><rect x="675.768" y="362.473" width="45.058" height="45.058" transform="matrix(1,0,0,1,0,0)" fill="rgb(230,230,230)"/><rect x="531.832" y="465.106" width="45.058" height="45.058" transform="matrix(1,0,0,1,0,0)" fill="rgb(230,230,230)"/><rect x="604.426" y="465.106" width="45.058" height="45.058" transform="matrix(1,0,0,1,0,0)" fill="rgb(230,230,230)"/><rect x="677.02" y="465.106" width="45.058" height="45.058" transform="matrix(1,0,0,1,0,0)" fill="rgb(230,230,230)"/><rect x="533.083" y="567.739" width="45.058" height="45.058" transform="matrix(1,0,0,1,0,0)" fill="rgb(230,230,230)"/><rect x="605.677" y="567.739" width="45.058" height="45.058" transform="matrix(1,0,0,1,0,0)" fill="rgb(230,230,230)"/><rect x="678.271" y="567.739" width="45.058" height="45.058" transform="matrix(1,0,0,1,0,0)" fill="rgb(230,230,230)"/><rect x="534.335" y="670.372" width="45.058" height="45.058" transform="matrix(1,0,0,1,0,0)" fill="rgb(230,230,230)"/><rect x="606.929" y="670.372" width="45.058" height="45.058" transform="matrix(1,0,0,1,0,0)" fill="rgb(230,230,230)"/><rect x="679.523" y="670.372" width="45.058" height="45.058" transform="matrix(1,0,0,1,0,0)" fill="rgb(230,230,230)"/><rect x="534.335" y="670.372" width="45.058" height="45.058" transform="matrix(1,0,0,1,0,0)" fill="rgb(230,230,230)"/><rect x="606.929" y="670.372" width="45.058" height="45.058" transform="matrix(1,0,0,1,0,0)" fill="rgb(230,230,230)"/><rect x="679.523" y="670.372" width="45.058" height="45.058" transform="matrix(1,0,0,1,0,0)" fill="rgb(230,230,230)"/><circle vector-effect="non-scaling-stroke" cx="99.90596563790993" cy="578.8058986544956" r="62.101756228866556" fill="rgb(50,73,148)"/><path d=" M 103.11 743.451 L 97.053 743.451 L 98.944 640.894 L 100.082 578.808 L 100.249 578.808 L 101.336 640.894 L 101.939 676.212 L 102.006 679.642 L 103.11 743.451 L 103.11 743.451 Z " fill="rgb(255,255,255)"/><rect x="104.001" y="670.252" width="3.071" height="11.601" transform="matrix(0.466,0.885,-0.885,0.466,654.583,267.723)" fill="rgb(255,255,255)"/><circle vector-effect="non-scaling-stroke" cx="282.48379788480605" cy="487.1309048048829" r="94.43672151590306" fill="rgb(50,73,148)"/><path d=" M 287.478 743.451 L 278.026 743.451 L 279.983 637.03 L 281.004 581.552 L 282.744 487.126 L 283.011 487.126 L 284.651 581.535 L 285.588 635.256 L 285.688 640.476 L 287.478 743.451 L 287.478 743.451 Z " fill="rgb(255,255,255)"/><rect x="288.71" y="626.192" width="4.67" height="17.642" transform="matrix(0.466,0.885,-0.885,0.466,717.355,81.652)" fill="rgb(255,255,255)"/><path d=" M 87.704 396.955 L 103.657 384.196 C 91.264 382.828 86.172 389.588 84.088 394.937 C 74.406 390.917 63.865 396.186 63.865 396.186 L 95.785 407.774 C 94.175 403.473 91.371 399.72 87.704 396.955 Z " fill="rgb(108,99,255)"/><path d=" M 255.803 292.977 L 271.756 280.217 C 259.363 278.85 254.271 285.609 252.187 290.959 C 242.505 286.938 231.964 292.207 231.964 292.207 L 263.884 303.795 C 262.274 299.494 259.47 295.741 255.803 292.977 Z " fill="rgb(108,99,255)"/><path d=" M 191.683 391.756 L 207.636 378.997 C 195.243 377.629 190.151 384.389 188.067 389.738 C 178.384 385.718 167.844 390.987 167.844 390.987 L 199.764 402.575 C 198.153 398.274 195.35 394.521 191.683 391.756 Z " fill="rgb(108,99,255)"/></g></svg>