<?xml version="1.0" encoding="UTF-8" standalone="no"?><!-- Generator: Gravit.io --><svg xmlns="http://www.w3.org/2000/svg" xmlns:xlink="http://www.w3.org/1999/xlink" style="isolation:isolate" viewBox="0 0 400 180" width="400pt" height="180pt"><defs><clipPath id="_clipPath_rwggbJke36zsJEpJEzh30WIHMmKBROac"><rect width="400" height="180"/></clipPath></defs><g clip-path="url(#_clipPath_rwggbJke36zsJEpJEzh30WIHMmKBROac)"><rect x="0" y="0" width="400" height="180" transform="matrix(1,0,0,1,0,0)" fill="rgb(255,255,255)"/><circle vector-effect="non-scaling-stroke" cx="55.5" cy="56.500000000000014" r="30.500000000000004" fill="rgb(236,236,236)"/><path d="M 118.698 32.179 L 243.415 32.179 C 246.007 32.179 248.112 34.284 248.112 36.876 L 248.112 59.624 C 248.112 62.216 246.007 64.321 243.415 64.321 L 118.698 64.321 C 116.105 64.321 114 62.216 114 59.624 L 114 36.876 C 114 34.284 116.105 32.179 118.698 32.179 Z" style="stroke:none;fill:#F2F2F2;stroke-miterlimit:10;"/><path d="M 121.959 77.036 L 367.041 77.036 C 371.434 77.036 375 80.602 375 84.994 L 375 115.041 C 375 119.434 371.434 123 367.041 123 L 121.959 123 C 117.566 123 114 119.434 114 115.041 L 114 84.994 C 114 80.602 117.566 77.036 121.959 77.036 Z" style="stroke:none;fill:#EBEBEB;stroke-miterlimit:10;"/><path d="M 117.415 141.107 L 167.481 141.107 C 169.366 141.107 170.896 142.638 170.896 144.523 L 170.896 158.227 C 170.896 160.112 169.366 161.643 167.481 161.643 L 117.415 161.643 C 115.53 161.643 114 160.112 114 158.227 L 114 144.523 C 114 142.638 115.53 141.107 117.415 141.107 Z" style="stroke:none;fill:#F4F4F4;stroke-miterlimit:10;"/></g></svg>